<?xml version="1.0" standalone="no"?>
<!DOCTYPE svg PUBLIC "-//W3C//DTD SVG 20010904//EN"
 "http://www.w3.org/TR/2001/REC-SVG-20010904/DTD/svg10.dtd">
<svg version="1.0" xmlns="http://www.w3.org/2000/svg"
 width="3668.000000pt" height="1224.000000pt" viewBox="0 0 3668.000000 1224.000000"
 preserveAspectRatio="xMidYMid meet">
<metadata>
Created by potrace 1.15, written by Peter Selinger 2001-2017
</metadata>
<g transform="translate(0.000000,1224.000000) scale(0.100000,-0.100000)"
fill="#000000" stroke="none">
<path d="M8969 12207 c-19 -13 -39 -37 -46 -57 -16 -47 -7 -7450 9 -7493 6
-15 25 -38 42 -50 l31 -22 1200 -3 c1245 -3 1378 0 1566 38 513 104 837 425
938 929 39 192 42 315 39 1326 -4 1080 1 1002 -74 1155 -54 109 -179 231 -295
288 -47 23 -118 50 -157 60 -40 9 -72 22 -72 28 0 6 30 19 67 28 238 58 419
222 500 451 l28 80 0 1050 c0 1135 1 1118 -55 1331 -111 423 -379 699 -792
818 -220 64 -136 60 -1579 63 l-1315 4 -35 -24z m2303 -1260 c62 -24 133 -88
163 -146 44 -89 46 -125 43 -836 l-3 -670 -28 -60 c-36 -78 -85 -127 -161
-162 l-61 -28 -502 -3 -503 -3 0 966 0 966 503 -3 c455 -3 506 -5 549 -21z
m-27 -3190 c107 -35 172 -97 212 -203 17 -46 18 -96 21 -722 3 -738 2 -746
-56 -841 -37 -60 -111 -112 -191 -133 -58 -15 -122 -16 -534 -15 l-467 2 0
963 c0 529 0 965 0 968 0 3 217 4 483 2 415 -4 489 -7 532 -21z"/>
<path d="M14540 12219 c-31 -13 -78 -56 -95 -89 -7 -14 -15 -52 -18 -85 -4
-33 -2 -1477 2 -3210 l8 -3150 22 -107 c112 -563 442 -877 1026 -975 85 -14
203 -17 765 -20 699 -5 854 1 1030 38 575 119 898 498 959 1123 8 75 11 1098
11 3223 0 2779 -2 3118 -15 3150 -20 48 -41 71 -87 94 -35 18 -66 19 -528 19
-462 0 -493 -1 -528 -19 -46 -23 -67 -46 -87 -94 -13 -32 -15 -356 -15 -2999
0 -2429 -3 -2973 -14 -3019 -26 -113 -91 -189 -196 -231 -52 -21 -73 -23 -385
-26 -354 -4 -413 1 -496 43 -95 49 -148 130 -169 260 -9 52 -11 828 -8 3010 3
2725 2 2942 -14 2970 -22 40 -66 81 -101 94 -37 14 -1032 14 -1067 0z"/>
<path d="M20010 12222 c-34 -15 -60 -40 -70 -66 -7 -19 -10 -1180 -10 -3747 0
-4058 -4 -3766 56 -3806 26 -17 63 -18 589 -18 518 0 563 1 588 18 15 9 33 30
41 45 20 39 27 7473 7 7512 -7 14 -24 34 -39 45 -26 19 -44 20 -587 22 -308 1
-567 -1 -575 -5z"/>
<path d="M23990 12215 c-652 -93 -1013 -480 -1079 -1159 -15 -149 -15 -2446 0
-2536 18 -114 76 -193 177 -244 26 -13 151 -57 277 -99 127 -41 534 -175 905
-298 371 -122 784 -258 918 -301 l243 -79 -3 -697 -3 -697 -24 -59 c-32 -79
-99 -146 -177 -177 -57 -22 -71 -23 -369 -27 -333 -4 -393 2 -476 43 -87 45
-145 124 -168 233 -7 34 -11 200 -11 473 0 461 -1 474 -59 503 -26 14 -101 16
-588 16 -535 0 -559 -1 -590 -20 -60 -36 -58 -18 -61 -595 -3 -561 5 -754 38
-927 100 -519 420 -842 938 -948 180 -36 334 -42 1034 -38 634 4 668 5 788 27
517 93 840 376 966 846 58 219 57 195 61 1504 3 830 1 1225 -7 1273 -19 126
-80 209 -195 265 -29 15 -564 194 -1187 398 l-1133 371 0 715 0 714 24 59 c32
79 96 146 174 182 l62 29 355 0 355 0 55 -26 c112 -52 169 -131 190 -259 5
-37 10 -243 10 -473 0 -444 1 -455 56 -492 28 -19 52 -20 582 -23 627 -3 608
-5 643 72 17 38 18 80 19 603 0 716 -11 850 -96 1094 -137 396 -423 636 -877
736 l-122 27 -775 2 c-607 2 -796 0 -870 -11z"/>
<path d="M7795 11404 c-712 -151 -1262 -282 -1805 -429 -413 -112 -469 -128
-685 -192 -964 -285 -1761 -558 -2597 -889 -347 -137 -662 -283 -1308 -606
-455 -227 -1372 -698 -1388 -713 -2 -2 144 -257 324 -567 180 -309 518 -891
750 -1291 l423 -728 -593 -987 c-326 -543 -659 -1096 -739 -1229 l-146 -243
207 -101 c855 -418 1231 -585 2172 -964 1026 -412 1783 -677 2840 -992 624
-186 1485 -407 2135 -549 259 -57 586 -124 601 -124 12 0 14 384 14 2660 l0
2660 -2748 0 -2748 0 -527 909 c-290 500 -527 912 -527 916 0 8 679 343 941
463 382 175 1043 430 1723 663 1145 394 2461 756 3629 1000 l257 54 0 657 0
658 -22 -1 c-13 0 -95 -16 -183 -35z"/>
<path d="M27830 8575 l0 -2455 3512 0 3511 0 -129 -93 c-973 -703 -2272 -1461
-3524 -2057 -1027 -488 -2138 -934 -3227 -1295 l-143 -47 0 -709 c0 -390 4
-709 8 -709 16 0 743 247 982 333 1078 389 2013 789 3000 1282 1491 745 2762
1538 3812 2377 240 191 291 236 708 617 58 53 127 116 155 141 27 25 77 71
111 103 l62 58 -56 52 c-31 29 -79 72 -106 97 -28 25 -78 70 -111 101 -33 30
-82 76 -110 100 -27 25 -102 93 -165 150 -206 188 -283 253 -488 417 -1262
1008 -2917 1993 -4747 2824 -602 274 -1320 565 -2010 815 -275 100 -1019 353
-1037 353 -4 0 -8 -1105 -8 -2455z"/>
<path d="M9420 3369 c-271 -33 -428 -169 -489 -424 -48 -197 -50 -468 -5 -601
65 -196 195 -347 554 -645 96 -80 195 -168 220 -195 95 -102 173 -238 207
-364 25 -91 25 -549 0 -653 -21 -86 -59 -160 -94 -185 -80 -57 -271 -69 -367
-22 -146 70 -184 221 -193 758 l-6 332 -163 0 -164 0 0 -202 c0 -241 15 -497
35 -625 59 -365 255 -533 623 -533 135 0 270 27 368 74 199 94 278 260 305
636 21 295 -22 508 -148 725 -100 173 -174 254 -493 535 -129 114 -247 221
-261 236 -15 16 -47 65 -73 109 -55 97 -68 165 -61 340 13 333 130 488 360
473 99 -7 157 -36 200 -102 74 -113 88 -206 89 -596 l1 -255 164 -3 164 -3 -6
293 c-8 400 -28 535 -95 647 -47 80 -125 162 -181 190 -103 53 -328 81 -491
60z"/>
<path d="M17970 3370 c-149 -18 -264 -71 -355 -164 -99 -100 -148 -228 -179
-466 -12 -92 -15 -293 -18 -1020 -2 -809 -1 -918 15 -1031 36 -267 95 -424
195 -523 101 -99 224 -145 418 -153 281 -13 478 81 569 272 83 173 110 345
121 773 l7 282 -165 0 -166 0 -5 -328 c-8 -514 -41 -656 -172 -737 -46 -28
-54 -30 -154 -30 -123 0 -164 16 -225 86 -72 84 -101 221 -117 549 -14 282 -6
1759 10 1850 52 299 135 407 322 418 138 8 219 -39 274 -160 49 -108 57 -175
62 -555 l5 -353 166 0 165 0 -7 283 c-8 316 -18 437 -47 581 -26 128 -57 192
-131 272 -99 105 -211 147 -423 158 -55 2 -129 1 -165 -4z"/>
<path d="M11052 2142 c-5 -1464 1 -1581 79 -1796 59 -162 148 -248 312 -303
78 -26 92 -27 277 -28 178 0 202 2 270 24 101 31 144 54 202 108 107 101 165
271 188 548 6 79 10 608 10 1386 l0 1259 -159 0 -160 0 -4 -1367 c-3 -959 -8
-1387 -16 -1433 -29 -165 -59 -220 -144 -264 -49 -25 -71 -30 -161 -34 -81 -4
-115 -1 -156 13 -113 38 -180 138 -199 300 -6 57 -11 580 -13 1437 l-3 1348
-160 0 -160 0 -3 -1198z"/>
<path d="M13380 1696 l0 -1646 160 0 160 0 0 811 0 811 93 -6 c50 -3 142 -8
202 -11 209 -11 264 -24 314 -78 50 -55 53 -87 62 -742 5 -335 13 -641 19
-679 17 -112 6 -106 189 -106 l158 0 -20 58 c-17 52 -20 100 -28 522 -4 256
-10 481 -13 500 -3 19 -10 80 -16 135 -6 55 -21 141 -32 190 -45 195 -106 275
-238 310 l-45 12 40 11 c141 40 233 168 282 392 25 118 25 633 0 754 -46 220
-156 331 -372 378 -78 17 -145 20 -502 25 l-413 6 0 -1647z m825 1394 c62 -19
109 -74 134 -154 47 -153 53 -655 9 -851 -22 -97 -64 -168 -117 -194 -55 -28
-91 -31 -322 -32 l-214 -1 -3 627 -4 627 239 -5 c151 -2 252 -9 278 -17z"/>
<path d="M15652 1695 l-4 -1645 161 0 161 0 0 830 0 831 320 -3 320 -3 0 110
0 110 -320 -3 -320 -3 0 601 0 600 340 0 340 0 0 110 0 110 -497 0 -498 0 -3
-1645z"/>
<path d="M19662 1696 l-4 -1646 161 0 161 0 0 811 0 812 98 -7 c53 -3 153 -9
222 -12 187 -8 269 -32 306 -90 42 -64 46 -112 54 -769 4 -347 11 -641 15
-655 4 -14 11 -40 17 -57 l10 -33 160 0 c148 0 160 1 153 18 -30 78 -35 136
-35 412 0 736 -54 1105 -179 1224 -17 16 -59 39 -95 51 l-64 21 65 29 c155 67
234 222 264 515 12 125 7 416 -11 560 -27 207 -117 344 -267 400 -117 44 -187
51 -618 57 l-410 6 -3 -1647z m777 1404 c80 -15 121 -39 152 -88 49 -78 62
-159 67 -439 7 -391 -17 -551 -94 -641 -54 -64 -91 -71 -357 -74 l-227 -3 0
628 0 627 204 0 c112 0 227 -4 255 -10z"/>
<path d="M22181 2562 c-79 -427 -154 -833 -167 -902 -12 -69 -84 -453 -158
-854 -75 -401 -136 -735 -136 -742 0 -11 30 -14 150 -14 83 0 150 2 150 4 0 2
25 148 55 325 30 177 55 324 55 326 0 3 171 6 380 7 372 3 379 3 384 -17 2
-11 30 -161 62 -332 l58 -313 153 0 c89 0 153 4 153 9 0 6 -32 164 -70 353
-39 189 -111 539 -160 778 -49 239 -168 819 -265 1289 -96 470 -175 856 -175
858 0 2 -73 3 -162 3 l-163 0 -144 -778z m378 -97 c33 -176 78 -419 100 -540
22 -121 49 -265 60 -320 16 -79 62 -331 116 -627 l5 -28 -330 0 c-182 0 -330
3 -330 8 0 4 27 165 60 357 65 376 210 1218 237 1378 9 53 17 96 19 94 2 -1
30 -146 63 -322z"/>
<path d="M24120 1695 l0 -1645 160 0 160 0 0 828 0 827 320 -3 320 -3 0 116 0
116 -320 -3 -320 -3 0 598 0 597 338 0 337 0 0 110 0 110 -497 0 -498 0 0
-1645z"/>
<path d="M25680 3230 l0 -110 200 0 200 0 0 -1487 c0 -819 0 -1509 0 -1535 l0
-48 155 0 155 0 0 38 c1 20 0 711 0 1535 l-1 1497 181 0 180 0 0 110 0 110
-535 0 -535 0 0 -110z"/>
</g>
</svg>
